<?xml version="1.0" encoding="UTF-8" standalone="no"?>
<svg
   xmlns:dc="http://purl.org/dc/elements/1.1/"
   xmlns:cc="http://creativecommons.org/ns#"
   xmlns:rdf="http://www.w3.org/1999/02/22-rdf-syntax-ns#"
   xmlns:svg="http://www.w3.org/2000/svg"
   xmlns="http://www.w3.org/2000/svg"
   viewBox="0 0 818.56 123.64"
   height="123.64"
   width="818.56"
   xml:space="preserve"
   id="svg2"
   version="1.1"><metadata
     id="metadata8"><rdf:RDF><cc:Work
         rdf:about=""><dc:format>image/svg+xml</dc:format><dc:type
           rdf:resource="http://purl.org/dc/dcmitype/StillImage" /></cc:Work></rdf:RDF></metadata><defs
     id="defs6" /><g
     transform="matrix(1.3333333,0,0,-1.3333333,0,123.64)"
     id="g10"><g
       transform="scale(0.1)"
       id="g12"><path
         id="path14"
         style="fill:#0e6343;fill-opacity:1;fill-rule:nonzero;stroke:none"
         d="m 1626.76,707.949 c 0,69.422 4.35,70.41 135.85,70.41 209.83,0 125.04,-117.66 176.14,-117.66 25,0 19.55,33.192 18.48,46.27 l -4.36,99.511 c 0,9.09 -7.59,19.149 -21.76,19.149 -95.64,0 -170.67,-4.039 -247.86,-4.039 -166.38,0 -244.64,4.039 -289.15,4.039 -15.23,0 -23.96,-8.051 -23.96,-17.098 0,-40.23 122.86,-8.051 122.86,-98.543 V 239.379 c 0,-122.688 -82.63,-68.348 -82.63,-114.617 0,-6.082 6.52,-11.063 20.66,-11.063 59.79,0 105.5,4.02 139.13,4.02 47.85,0 88.1,-4.02 129.4,-4.02 27.21,0 50.02,-4.019 50.02,16.082 0,27.141 -122.82,2.008 -122.82,113.598 V 392.23 c 0,58.301 -4.41,70.379 45.64,70.379 h 80.41 c 113.09,0 82.66,-106.589 117.46,-106.589 26.08,0 19.52,36.21 18.42,49.3 l -7.54,178.961 c -1.13,27.149 -13.1,25.16 -20.68,25.16 -21.76,0 -25,-92.531 -118.51,-92.531 h -68.5 c -46.7,0 -46.7,7.059 -46.7,50.281 z M 878.922,186.371 c 5.738,-23.781 4.598,-31.75 33.34,-37.691 66.648,-12.891 125.318,-36.7 195.448,-36.7 150.58,0 256.33,88.258 256.33,218.149 0,125.93 -75.88,168.59 -198.83,215.18 -154.13,58.5 -217.288,71.41 -217.288,137.839 0,66.422 51.719,104.114 127.588,104.114 197.73,0 214.96,-184.434 241.4,-184.434 25.34,0 28.77,11.883 26.49,33.723 l -12.68,132.859 c -2.3,22.809 1.14,37.68 -16.07,37.68 -14.98,0 -43.69,-15.852 -58.65,-15.852 -34.48,0 -82.79,38.672 -177.07,38.672 -134.532,0 -226.469,-83.289 -226.469,-197.351 0,-104.118 67.828,-142.77 166.719,-180.45 185.06,-70.41 257.5,-83.3 257.5,-167.578 0,-79.332 -69,-126.941 -158.64,-126.941 -127.579,0 -198.899,90.25 -235.688,185.441 -4.633,12.891 -6.922,21.797 -25.321,21.797 -28.711,0 -17.203,-28.75 -13.793,-42.617 z m -98.883,518.277 c 0,112.063 63.961,76.364 63.961,103.133 0,10.91 -5.461,12.899 -16.461,12.899 -45.66,-1.989 -73.969,-3.981 -104.148,-3.981 -25.59,0 -50.25,1.992 -76.711,3.981 -11.871,0 -27.379,4.949 -27.379,-10.899 0,-35.711 112.301,-4.972 112.301,-119.011 V 494.422 C 731.602,326.859 707.891,170.211 526.07,170.211 362.578,170.211 326,296.141 326,447.84 v 215.172 c 0,162.617 76.77,110.09 76.77,143.777 0,5.961 -1.86,13.891 -10.051,13.891 -17.367,0 -82.231,-3.981 -128.821,-3.981 -45.679,0 -114.179,3.981 -126.078,3.981 -7.269,0 -19.179,-2.969 -19.179,-15.871 0,-37.688 95.007,-5.95 95.007,-91.231 V 390.32 c 0,-192.371 91.383,-278.648 262.211,-278.648 252.102,0 304.18,167.59 304.18,368.879 z M 0,927.328 H 2086.02 V 3.07031 L 0,3.07031 V 927.328" /><path
         id="path16"
         style="fill:#0e6343;fill-opacity:1;fill-rule:nonzero;stroke:none"
         d="m 2312.33,712.949 c 0,-75.808 49.3,-110.398 113.26,-110.398 89.06,0 109.43,58.758 109.43,114.668 v 153.5 c 0,48.332 -44.06,28.41 -44.06,46.41 0,2.391 3.31,4.73 4.74,4.73 18.47,0 36.94,-1.879 55.43,-1.879 8.99,0 17.53,1.879 26.05,1.879 2.37,0 6.17,-2.339 6.17,-5.187 0,-13.281 -27.97,-2.852 -27.97,-46.453 v -146.84 c 0,-23.238 5.7,-140.258 -132.18,-140.258 -124.6,0 -148.29,69.649 -148.29,142.609 v 159.661 c 0,27.968 -38.38,16.578 -38.38,31.738 0,3.312 8.06,4.73 10.43,4.73 12.31,0 24.16,-1.879 36.96,-1.879 15.16,0 30.32,1.879 45,1.879 2.38,0 15.16,0.969 15.16,-4.73 0,-13.231 -31.75,0 -31.75,-34.09 v -170.09" /><path
         id="path18"
         style="fill:#0e6343;fill-opacity:1;fill-rule:nonzero;stroke:none"
         d="m 2673.58,828.551 c 0,98.551 -57.33,71.07 -57.33,88.578 0,2.851 4.75,4.73 7.11,4.73 7.58,0 14.7,-1.879 22.28,-1.879 7.08,0 14.66,1.879 21.78,1.879 5.22,0 9.47,-7.57 12.32,-10.879 l 226,-251.558 c 2.84,-3.344 4.73,-5.231 5.69,-5.231 0.92,0 1.42,1.43 1.42,5.231 v 198.027 c 0,62.071 -52.6,44.063 -52.6,59.68 0,3.312 2.37,4.73 5.21,4.73 14.22,0 27.96,-1.879 43.12,-1.879 16.11,0 36.48,1.879 47.84,1.879 2.84,0 4.75,-1.418 4.75,-4.23 0,-12.348 -27.96,-3.809 -27.96,-38.399 v -274.3 c 0,-13.731 -0.46,-20.391 -4.27,-20.391 -3.31,0 -8.04,2.383 -17.99,13.281 l -203.74,229.301 c -0.94,0.969 -6.62,9.008 -9.93,9.008 -1.9,0 -3.32,-1.418 -3.32,-10.891 V 631.449 c 0,-42.64 41.69,-26.051 41.69,-38.828 0,-2.391 -0.46,-6.16 -5.22,-6.16 -11.37,0 -24.64,1.891 -47.85,1.891 -16.58,0 -41.21,-1.891 -44.52,-1.891 -5.7,0 -6.18,2.809 -6.18,5.199 0,16.578 41.7,-4.269 41.7,62.07 v 174.821" /><path
         id="path20"
         style="fill:#0e6343;fill-opacity:1;fill-rule:nonzero;stroke:none"
         d="m 3045.96,881.148 c -0.46,34.563 -38.37,25.09 -38.37,35.524 0,4.269 0.97,5.187 4.74,5.187 17.55,0 34.59,-1.879 52.12,-1.879 14.69,0 29.38,1.879 44.06,1.879 7.58,0 9,-0.918 9,-4.73 0,-11.348 -34.11,-0.457 -34.11,-35.981 V 626.711 c 0,-32.199 42.18,-21.313 42.18,-35.512 0,-3.347 -1.42,-4.738 -9.49,-4.738 -10.91,0 -31.26,1.891 -51.64,1.891 -28.9,0 -38.85,-1.891 -45.48,-1.891 -8.53,0 -9.95,2.348 -9.95,7.078 0,13.75 36.94,-1.879 36.94,45.02 v 242.589" /><path
         id="path22"
         style="fill:#0e6343;fill-opacity:1;fill-rule:nonzero;stroke:none"
         d="m 3203.95,885.391 c -11.84,28.429 -36.48,19.429 -36.48,29.859 0,4.27 2.38,6.609 6.64,6.609 14.67,0 29.37,-1.879 43.58,-1.879 12.81,0 30.8,1.879 37.44,1.879 2.84,0 6.61,-1.879 6.61,-4.73 0.5,-6.617 -19.41,-7.078 -19.41,-24.16 0,-6.617 2.37,-14.199 4.26,-18.469 l 82.92,-195.18 c 10.43,-25.129 13.74,-36.019 18.95,-36.019 4.74,0 6.16,7.578 8.53,13.277 l 82.42,203.25 c 2.85,7.082 8.54,22.242 6.66,32.211 0,21.781 -30.32,12.781 -30.32,23.672 0,4.73 2.34,6.148 7.08,6.148 10.43,0 20.86,-1.879 31.29,-1.879 22.73,0 29.85,1.879 36.47,1.879 5.22,0 8.05,-1.879 8.05,-6.148 0,-10.43 -13.26,1.418 -26.52,-30.32 L 3354.14,606.359 c -5.2,-11.847 -8.52,-27.48 -15.63,-27.48 -7.58,0 -13.27,19.902 -17.54,29.832 l -117.02,276.68" /><path
         id="path24"
         style="fill:#0e6343;fill-opacity:1;fill-rule:nonzero;stroke:none"
         d="m 3628.89,784.02 c 0,-16.122 -0.97,-16.122 18.01,-16.122 h 51.18 c 49.26,0 36.48,37.911 47.83,37.911 3.81,0 5.23,-5.2 5.2,-9.008 0,-16.59 -0.93,-32.672 -0.93,-47.832 0,-12.348 0.93,-24.66 0.96,-37.438 0,-4.269 -1.92,-6.16 -5.23,-6.16 -14.7,0 1.43,41.68 -38.37,41.68 h -70.11 c -9.96,0 -8.54,-8.051 -8.54,-15.172 V 644.73 c 0,-27.98 -3.78,-39.332 36.02,-39.332 109.44,0 125.52,48.793 131.68,48.793 3.35,0 3.81,-4.73 3.81,-5.691 0,-17.051 -12.32,-33.641 -23.71,-45.949 -15.15,-17.051 -25.55,-16.09 -46.4,-16.09 -36.02,0 -72.04,2.809 -108.02,1.891 -18.97,-0.5 -38.87,-1.891 -57.8,-1.891 -4.27,0 -7.12,0.93 -7.12,4.738 0.97,5.66 5.69,4.731 20.86,12.313 12.31,5.66 13.24,18.937 13.24,41.218 v 216.032 c 0,21.308 0,44.058 -25.56,47.867 -3.81,0.922 -14.23,1.883 -14.23,7.582 0,3.769 2.85,5.648 16.59,5.648 89.54,0 114.17,-1.879 134.06,-1.879 9.5,0 53.07,1.879 67.76,1.879 3.78,0 4.74,-4.73 4.74,-10.39 0,-52.598 -6.62,-56.41 -9.46,-56.41 -11.4,0 -3.81,22.75 -11.4,33.671 -12.31,16.09 -61.57,13.239 -80.54,13.239 -45.49,0 -44.52,1.929 -44.52,-29.821 V 784.02" /><path
         id="path26"
         style="fill:#0e6343;fill-opacity:1;fill-rule:nonzero;stroke:none"
         d="m 4019.71,757.941 c 33.17,13.27 59.72,45.02 59.72,81.957 0,91.473 -104.71,81.961 -112.29,81.961 -24.63,0 -51.64,-1.879 -79.12,-1.879 -24.17,0 -21.81,1.879 -30.32,1.879 -5.69,0 -9.5,-2.808 -9.5,-5.648 0,-16.121 40.75,3.309 40.75,-42.18 v -241.16 c 0,-36.012 -34.6,-29.359 -34.6,-41.211 0,-2.851 1.92,-5.199 4.78,-5.199 17.96,0 35.97,1.891 53.98,1.891 39.33,0 50.22,-1.891 54.49,-1.891 3.81,0 8.05,-0.961 8.05,3.769 0,16.129 -49.26,1.43 -49.26,42.18 v 99.969 c 0,4.742 -2.85,13.25 12.32,13.25 53.06,0 45.94,1.422 63.02,-25.098 l 52.57,-82.922 c 18.01,-27.007 36.48,-51.148 71.08,-51.148 4.26,0 30.78,0 30.78,5.66 0,11.391 -23.21,-6.152 -57.34,45.988 z m -93.32,130.789 c 0,18.469 9.93,17.508 27.01,17.508 46.41,0 90.47,-19.429 90.47,-77.226 0,-58.723 -45.48,-67.262 -65.84,-67.262 -22.28,0 -51.64,-2.391 -51.64,6.609 V 888.73" /><path
         id="path28"
         style="fill:#0e6343;fill-opacity:1;fill-rule:nonzero;stroke:none"
         d="m 4185.98,670.309 c -1.88,9.472 0.47,14.671 5.21,14.671 6.65,0 6.65,-5.66 9,-15.621 5.69,-21.789 34.13,-71.078 99.51,-71.078 44.98,0 89.05,25.129 89.05,74.879 0,91.43 -192.34,40.25 -192.34,163.93 0,60.148 50.68,89.051 105.18,89.051 57.33,0 72.96,-17.051 79.58,-17.051 4.26,0 5.22,5.199 9.96,5.199 2.85,0 5.19,-1.43 5.69,-6.617 l 7.08,-64.422 c 0.51,-3.809 -0.46,-7.121 -5.19,-7.121 -5.2,0 -8.54,9.93 -9.96,14.199 -14.2,40.75 -48.8,61.613 -90.47,61.613 -37.45,0 -77.24,-18.011 -77.24,-61.613 0,-89.047 192.37,-36.937 192.37,-167.699 0,-39.789 -27.98,-99.508 -135.53,-99.508 -35.05,0 -78.16,17.539 -80.04,26.051 l -11.86,61.137" /><path
         id="path30"
         style="fill:#0e6343;fill-opacity:1;fill-rule:nonzero;stroke:none"
         d="m 4497.97,881.148 c -0.47,34.563 -38.37,25.09 -38.37,35.524 0,4.269 0.93,5.187 4.74,5.187 17.51,0 34.59,-1.879 52.1,-1.879 14.7,0 29.4,1.879 44.06,1.879 7.58,0 9.01,-0.918 9.01,-4.73 0,-11.348 -34.09,-0.457 -34.09,-35.981 V 626.711 c 0,-32.199 42.17,-21.313 42.17,-35.512 0,-3.347 -1.42,-4.738 -9.51,-4.738 -10.89,0 -31.24,1.891 -51.64,1.891 -28.9,0 -38.83,-1.891 -45.48,-1.891 -8.5,0 -9.93,2.348 -9.93,7.078 0,13.75 36.94,-1.879 36.94,45.02 v 242.589" /><path
         id="path32"
         style="fill:#0e6343;fill-opacity:1;fill-rule:nonzero;stroke:none"
         d="m 4735.83,874.031 c 0,3.309 1.88,21.321 -4.74,21.778 h -77.23 c -29.4,0 -30.33,-7.079 -38.86,-33.161 -1.43,-4.738 -1.89,-10.898 -8.05,-10.898 -2.84,0 -4.74,3.309 -4.74,5.699 l 5.21,45.942 c 0.46,5.699 0,18.468 8.53,18.468 36.95,0 73.43,-1.879 134.53,-1.879 85.77,0 129.34,1.879 138.84,1.879 10.89,0 13.24,-2.808 13.74,-13.73 l 2.36,-37.91 c 0.49,-4.731 0.95,-10.391 -5.21,-10.391 -17.54,0 8.05,35.981 -40.28,35.981 h -67.73 c -21.32,0 -18.97,1.921 -18.97,-23.2 V 630.988 c 0,-39.789 38.4,-24.168 38.4,-38.867 0,-1.422 0.46,-5.66 -4.27,-5.66 -11.39,0 -24.63,1.891 -38.4,1.891 -53.03,0 -62.04,-1.891 -64.88,-1.891 -4.27,0 -5.7,1.391 -5.7,6.16 0,11.348 37.45,6.617 37.45,35.059 v 246.351" /><path
         id="path34"
         style="fill:#0e6343;fill-opacity:1;fill-rule:nonzero;stroke:none"
         d="m 4982.82,892.039 c -12.32,20.359 -35.52,14.66 -35.52,22.742 0,3.321 2.85,7.078 6.16,7.078 12.78,0 21.78,-1.879 54.03,-1.879 15.62,0 28.39,1.879 33.13,1.879 3.34,0 9,-0.449 9,-4.73 0,-8.039 -22.24,-8.5 -22.24,-22.238 0,-7.582 5.66,-15.161 8.5,-19.43 l 57.34,-91.441 c 3.81,-5.692 6.62,-8.54 9.47,-8.54 2.38,0 5.23,3.309 9,9.469 l 48.79,79.121 c 3.35,5.231 9.97,13.27 9.97,26.09 0,23.199 -35.51,13.231 -35.51,24.621 0,6.16 4.72,7.078 9.93,7.078 11.38,0 23.2,-1.879 34.59,-1.879 13.74,0 27.47,1.879 41.21,1.879 2.85,0 5.19,-3.308 5.19,-5.648 0,-5.231 -8.03,-7.121 -11.34,-9.012 -12.79,-7.578 -18.94,-20.847 -26.52,-32.699 l -66.34,-103.289 c -7.58,-11.852 -11.39,-14.199 -11.39,-21.32 V 633.828 c 0,-41.207 38.87,-27.969 38.87,-42.629 0,-4.277 -4.27,-4.738 -10.89,-4.738 -7.12,0 -34.6,1.891 -52.14,1.891 -21.33,0 -38.37,-1.891 -42.64,-1.891 -4.24,0 -7.09,0.461 -7.09,5.66 0,13.277 36.49,0.957 36.49,34.59 v 114.68 c 0,8.968 -7.12,18.468 -10.89,24.129 l -79.16,126.519" /><path
         id="path36"
         style="fill:#0e6343;fill-opacity:1;fill-rule:nonzero;stroke:none"
         d="m 5601.99,583.121 c 105.66,0 179.09,68.719 179.09,175.32 0,98.047 -74.39,167.7 -171.05,167.7 -97.12,0 -173.86,-71.539 -173.86,-170.09 0,-99.973 63,-172.93 165.82,-172.93 z m -6.16,327.391 c 92.4,0 150.65,-83.852 150.65,-170.09 0,-87.652 -55.41,-143.07 -124.6,-143.07 -93.82,0 -151.11,84.82 -151.11,172.437 0,74.883 45.48,140.723 125.06,140.723" /><path
         id="path38"
         style="fill:#0e6343;fill-opacity:1;fill-rule:nonzero;stroke:none"
         d="m 5879.62,784.02 c 0,-16.122 -0.95,-16.122 18.02,-16.122 h 51.14 c 49.29,0 36.48,37.911 47.87,37.911 3.77,0 5.2,-5.2 5.2,-9.008 0,-16.59 -0.93,-32.672 -0.93,-47.832 0,-12.348 0.93,-24.66 0.93,-37.438 0,-4.269 -1.89,-6.16 -5.2,-6.16 -14.7,0 1.42,41.68 -38.36,41.68 h -70.12 c -10.93,0 -8.55,-8.051 -8.55,-15.172 V 636.18 c 0,-44.981 44.54,-32.668 44.54,-43.559 0,-6.652 -7.09,-6.652 -10.43,-6.652 -3.31,0 -8.05,2.383 -52.11,2.383 -24.16,0 -40.76,-2.383 -49.26,-2.383 -3.81,0 -4.77,3.301 -4.77,4.261 0,13.282 34.59,-0.46 34.59,52.11 v 218.422 c 0,21.308 0,44.058 -25.58,47.867 -3.77,0.922 -14.2,1.883 -14.2,7.582 0,3.769 2.85,5.648 16.58,5.648 89.55,0 114.18,-1.879 134.07,-1.879 9.46,0 53.07,1.879 67.77,1.879 3.76,0 4.73,-4.73 4.73,-10.39 0,-52.598 -6.62,-56.41 -9.47,-56.41 -11.39,0 -3.81,22.75 -11.39,33.671 -12.31,16.09 -61.57,13.239 -80.53,13.239 -45.49,0 -44.54,1.929 -44.54,-29.821 V 784.02" /><path
         id="path40"
         style="fill:#0e6343;fill-opacity:1;fill-rule:nonzero;stroke:none"
         d="m 2230.07,87.1992 c -1.83,9.4727 0.44,14.6718 5,14.6718 6.37,0 6.37,-5.6718 8.65,-15.6327 5.45,-21.7891 32.74,-71.0664 95.5,-71.0664 43.23,0 85.51,25.1172 85.51,74.8789 0,91.4182 -184.64,40.2502 -184.64,163.9182 0,60.16 48.65,89.051 100.97,89.051 55.02,0 70.04,-17.04 76.41,-17.04 4.09,0 4.98,5.192 9.54,5.192 2.74,0 5,-1.422 5.46,-6.621 l 6.82,-64.422 c 0.46,-3.801 -0.47,-7.109 -5,-7.109 -5,0 -8.19,9.921 -9.56,14.199 -13.63,40.75 -46.83,61.601 -86.87,61.601 -35.92,0 -74.14,-18 -74.14,-61.601 0,-89.047 184.68,-36.949 184.68,-167.7073 C 2448.4,59.7305 2421.56,0 2318.32,0 c -33.67,0 -75.06,17.5508 -76.88,26.0508 l -11.37,61.1484" /><path
         id="path42"
         style="fill:#0e6343;fill-opacity:1;fill-rule:nonzero;stroke:none"
         d="m 2638.06,0 c 101.41,0 171.92,68.7305 171.92,175.32 0,98.051 -71.41,167.7 -164.2,167.7 -93.25,0 -166.92,-71.532 -166.92,-170.079 C 2478.86,72.9609 2539.35,0 2638.06,0 Z m -5.93,327.398 c 88.7,0 144.64,-83.847 144.64,-170.089 0,-87.6488 -53.22,-143.0707 -119.62,-143.0707 -90.06,0 -145.08,84.8125 -145.08,172.4337 0,74.887 43.65,140.726 120.06,140.726" /><path
         id="path44"
         style="fill:#0e6343;fill-opacity:1;fill-rule:nonzero;stroke:none"
         d="m 2898.21,129.828 c 0,-75.7967 47.32,-110.3983 108.71,-110.3983 85.51,0 105.06,58.7617 105.06,114.6793 v 153.5 c 0,48.332 -42.3,28.403 -42.3,46.411 0,2.39 3.19,4.73 4.54,4.73 17.76,0 35.48,-1.879 53.23,-1.879 8.63,0 16.81,1.879 25,1.879 2.27,0 5.92,-2.34 5.92,-5.199 0,-13.27 -26.83,-2.84 -26.83,-46.442 V 140.262 C 3131.54,117.02 3137.01,0 3004.64,0 2885.02,0 2862.28,69.6602 2862.28,142.621 v 159.66 c 0,27.969 -36.84,16.578 -36.84,31.739 0,3.308 7.73,4.73 10,4.73 11.82,0 23.21,-1.879 35.49,-1.879 14.55,0 29.11,1.879 43.21,1.879 2.27,0 14.55,0.969 14.55,-4.73 0,-13.239 -30.48,0 -30.48,-34.098 V 129.828" /><path
         id="path46"
         style="fill:#0e6343;fill-opacity:1;fill-rule:nonzero;stroke:none"
         d="m 3308.01,290.922 c 0,3.308 1.82,21.316 -4.55,21.777 h -74.14 c -28.18,0 -29.11,-7.078 -37.29,-33.168 -1.36,-4.742 -1.82,-10.89 -7.73,-10.89 -2.74,0 -4.56,3.308 -4.56,5.699 l 5.02,45.941 c 0.45,5.699 0,18.469 8.19,18.469 35.46,0 70.48,-1.879 129.15,-1.879 82.33,0 124.18,1.879 133.28,1.879 10.45,0 12.72,-2.809 13.18,-13.738 l 2.28,-37.903 c 0.46,-4.73 0.91,-10.39 -5.01,-10.39 -16.82,0 7.75,35.98 -38.66,35.98 h -65.03 c -20.46,0 -18.2,1.922 -18.2,-23.199 V 47.8711 c 0,-39.78126 36.86,-24.1602 36.86,-38.8711 0,-1.41016 0.45,-5.64844 -4.1,-5.64844 -10.92,0 -23.67,1.87891 -36.85,1.87891 -50.95,0 -59.58,-1.87891 -62.3,-1.87891 -4.1,0 -5.48,1.38672 -5.48,6.14844 0,11.3594 35.94,6.6211 35.94,35.0586 V 290.922" /><path
         id="path48"
         style="fill:#0e6343;fill-opacity:1;fill-rule:nonzero;stroke:none"
         d="m 3529.96,298.039 c -0.45,34.563 -39.56,25.09 -39.56,35.512 0,4.277 3.65,5.199 7.27,5.199 16.84,0 33.21,-1.879 50.05,-1.879 14.08,0 28.17,1.879 42.27,1.879 7.76,0 8.65,-2.809 8.65,-4.73 0,-9.469 -32.75,-0.469 -32.75,-35.981 V 195.68 c 0,-6.621 0,-8.508 6.84,-8.508 h 166.45 c 4.56,0 3.64,11.816 3.64,13.738 v 97.129 c 0,32.672 -34.1,24.633 -34.1,35.512 0,2.859 0.88,5.199 7.72,5.199 15.02,0 38.65,-1.879 47.31,-1.879 16.82,0 23.66,1.879 32.73,1.879 11.82,0 12.74,-4.73 12.74,-7.578 0,-8.5 -30.46,-0.461 -30.46,-33.133 V 46.9102 c 0,-34.6016 41.39,-26.0508 41.39,-37.9102 0,-1.41016 -1.82,-5.64844 -5.02,-5.64844 -12.27,0 -26.37,1.87891 -42.74,1.87891 -29.11,0 -41.86,-1.87891 -50.5,-1.87891 -4.09,0 -10.9,-1.42968 -10.9,6.14844 0,11.3594 31.83,4.7383 31.83,34.5586 V 157.77 c 0,7.589 1.8,11.859 -3.64,11.859 h -167.84 c -5.45,0 -5.45,-2.848 -5.45,-8.051 V 43.6016 c 0,-32.2032 43.21,-21.7813 43.21,-36.48051 0,-2.38281 -3.17,-3.76953 -7.26,-3.76953 -5.95,0 -39.15,1.87891 -63.23,1.87891 -32.29,0 -37.31,-1.87891 -39.12,-1.87891 -3.63,0 -5,2.33985 -5,7.07814 0,13.7422 35.47,-1.89064 35.47,45.0195 V 298.039" /><path
         id="path50"
         style="fill:#0e6343;fill-opacity:1;fill-rule:nonzero;stroke:none"
         d="m 4138.69,200.91 c 0,-16.121 -0.89,-16.121 17.29,-16.121 h 49.12 c 47.3,0 35.02,37.902 45.95,37.902 3.62,0 4.98,-5.191 4.98,-9 0,-16.589 -0.89,-32.671 -0.89,-47.839 0,-12.34 0.89,-24.661 0.89,-37.43 0,-4.281 -1.82,-6.16 -4.98,-6.16 -14.1,0 1.35,41.679 -36.84,41.679 h -67.34 c -10.46,0 -8.18,-8.05 -8.18,-15.171 V 53.0703 c 0,-44.98046 42.74,-32.6719 42.74,-43.5703 0,-6.64844 -6.8,-6.64844 -10,-6.64844 -3.17,0 -7.72,2.37891 -50.01,2.37891 -23.2,0 -39.11,-2.37891 -47.29,-2.37891 -3.67,0 -4.56,3.3086 -4.56,4.26953 0,13.27731 33.21,-0.46093 33.21,52.10941 V 277.648 c 0,21.313 0,44.051 -24.56,47.864 -3.66,0.929 -13.66,1.886 -13.66,7.59 0,3.769 2.73,5.648 15.9,5.648 85.99,0 109.62,-1.879 128.73,-1.879 9.12,0 50.93,1.879 65.02,1.879 3.67,0 4.56,-4.73 4.56,-10.391 0,-52.597 -6.37,-56.41 -9.08,-56.41 -10.93,0 -3.66,22.742 -10.93,33.672 -11.81,16.078 -59.11,13.238 -77.33,13.238 -43.63,0 -42.74,1.922 -42.74,-29.828 V 200.91" /><path
         id="path52"
         style="fill:#0e6343;fill-opacity:1;fill-rule:nonzero;stroke:none"
         d="m 4383.4,61.6094 c 0,-27.9805 -3.62,-39.3203 34.6,-39.3203 105.06,0 120.51,48.7812 126.42,48.7812 3.2,0 3.66,-4.7187 3.66,-5.6914 0,-17.0508 -11.84,-33.6289 -22.74,-45.9492 -14.55,-17.03907 -24.59,-16.07814 -44.59,-16.07814 -34.56,0 -69.12,2.8086 -103.71,1.87891 -18.19,-0.49219 -37.27,-1.87891 -55.49,-1.87891 -4.09,0 -6.8,0.92969 -6.8,4.73828 0.89,5.64846 5.45,4.71876 20,12.30856 11.82,5.6524 12.75,18.9297 12.75,41.211 V 301.809 c 0,24.632 -38.23,21.32 -38.23,30.793 0,5.226 3.21,6.148 9.11,6.148 9.54,0 23.64,-1.879 45.95,-1.879 25.91,0 36.84,1.879 43.63,1.879 5.95,0 8.66,-0.922 8.66,-6.621 0,-10.891 -33.22,0.973 -33.22,-40.25 V 61.6094" /><path
         id="path54"
         style="fill:#0e6343;fill-opacity:1;fill-rule:nonzero;stroke:none"
         d="m 4724.54,0 c 101.43,0 171.94,68.7305 171.94,175.32 0,98.051 -71.44,167.7 -164.22,167.7 -93.24,0 -166.91,-71.532 -166.91,-170.079 C 4565.35,72.9609 4625.84,0 4724.54,0 Z m -5.91,327.398 c 88.69,0 144.65,-83.847 144.65,-170.089 0,-87.6488 -53.22,-143.0707 -119.63,-143.0707 -90.08,0 -145.1,84.8125 -145.1,172.4337 0,74.887 43.67,140.726 120.08,140.726" /><path
         id="path56"
         style="fill:#0e6343;fill-opacity:1;fill-rule:nonzero;stroke:none"
         d="m 5069.17,174.82 c 31.85,13.282 57.29,45.02 57.29,81.969 0,91.473 -100.51,81.961 -107.76,81.961 -23.68,0 -49.58,-1.879 -75.99,-1.879 -23.17,0 -20.89,1.879 -29.08,1.879 -5.48,0 -9.1,-2.809 -9.1,-5.648 0,-16.133 39.11,3.308 39.11,-42.18 V 49.7617 c 0,-36.0234 -33.22,-29.3633 -33.22,-41.22264 0,-2.84765 1.82,-5.1875 4.57,-5.1875 17.29,0 34.56,1.87891 51.85,1.87891 37.73,0 48.19,-1.87891 52.29,-1.87891 3.66,0 7.75,-0.96093 7.75,3.76953 0,16.11721 -47.3,1.41797 -47.3,42.17971 V 149.27 c 0,4.73 -2.74,13.242 11.82,13.242 50.93,0 44.13,1.429 60.5,-25.09 l 50.47,-82.9337 c 17.29,-27.0078 35.02,-51.13674 68.23,-51.13674 4.09,0 29.57,0 29.57,5.64844 0,11.3984 -22.31,-6.14844 -55.06,45.9883 z m -89.59,130.801 c 0,18.469 9.54,17.508 25.91,17.508 44.56,0 86.88,-19.43 86.88,-77.231 0,-58.726 -43.67,-67.269 -63.21,-67.269 -21.39,0 -49.58,-2.379 -49.58,6.621 v 120.371" /><path
         id="path58"
         style="fill:#0e6343;fill-opacity:1;fill-rule:nonzero;stroke:none"
         d="m 5276.16,298.039 c -0.46,34.563 -36.88,25.09 -36.88,35.512 0,4.277 0.93,5.199 4.56,5.199 16.84,0 33.21,-1.879 50.04,-1.879 14.09,0 28.19,1.879 42.29,1.879 7.29,0 8.64,-0.922 8.64,-4.73 0,-11.348 -32.74,-0.469 -32.74,-35.981 V 43.6016 c 0,-32.2032 40.5,-21.3125 40.5,-35.51176 0,-3.35156 -1.38,-4.73828 -9.11,-4.73828 -10.47,0 -30.01,1.87891 -49.58,1.87891 -27.76,0 -37.3,-1.87891 -43.67,-1.87891 -8.18,0 -9.54,2.33985 -9.54,7.07814 0,13.7422 35.49,-1.89064 35.49,45.0195 V 298.039" /><path
         id="path60"
         style="fill:#0e6343;fill-opacity:1;fill-rule:nonzero;stroke:none"
         d="m 5423.96,52.1406 c 0,-45.01951 -32.31,-33.1718 -32.31,-44.05076 0,-2.85937 0.92,-4.73828 4.56,-4.73828 3.2,0 46.87,1.87891 50.96,1.87891 23.17,0 46.37,-1.87891 69.58,-1.87891 125.99,0 175.57,75.30864 175.57,184.28944 0,87.648 -79.16,151.109 -159.66,151.109 -39.12,0 -68.69,-1.879 -98.7,-1.879 -13.62,0 -26.83,1.879 -40.93,1.879 -2.73,0 -6.36,-1.422 -6.36,-4.73 0,-12.782 37.29,2.39 37.29,-45.95 z m 35.92,244.9374 c 0,22.281 1.84,29.863 45.06,29.863 86.4,-0.5 153.71,-60.191 153.71,-165.363 0,-109.4374 -61.4,-145.4569 -125.99,-145.4569 -20.47,0 -55.03,5.6992 -70.05,21.3203 -4.09,4.2774 -2.73,27.0078 -2.73,34.5977 V 297.078" /><path
         id="path62"
         style="fill:#0e6343;fill-opacity:1;fill-rule:nonzero;stroke:none"
         d="m 5933.33,77.6992 c 4.56,-12.7773 14.1,-34.5703 14.1,-44.9883 0,-18.0117 -27.3,-13.2812 -27.3,-24.62106 0,-4.73828 7.3,-4.73828 10,-4.73828 12.28,0 24.59,1.87891 36.88,1.87891 18.64,0 37.25,-1.87891 55.91,-1.87891 3.2,0 6.36,0 6.36,4.23828 0,11.83986 -26.36,1.41016 -40,23.23046 -10.46,16.5899 -15.95,36.4805 -22.74,53.9883 l -94.6,244.0114 c -1.39,3.782 -4.55,17.508 -9.57,17.508 -5.91,0 -7.27,-7.578 -34.09,-67.258 L 5719.58,37.4414 c -11.85,-27.0117 -33.21,-18.9609 -33.21,-28.90234 0,-2.84765 1.36,-5.1875 4.09,-5.1875 11.82,0 24.1,1.87891 36.38,1.87891 12.74,0 25.48,-1.87891 38.18,-1.87891 5.95,0 12.32,-1.42968 12.32,7.07814 0,12.3086 -32.32,-1.89064 -32.32,31.2891 0,6.1523 1.82,13.2695 3.21,16.582 l 29.11,66.3082 c 4.52,9.961 12.7,9.961 21.36,9.961 h 100.07 c 12.71,0 15.45,-7.121 20,-18.011 z M 5847.39,279.07 c 2.7,5.692 4.98,5.692 7.25,0 l 44.56,-114.179 c 2.28,-6.153 2.75,-9.461 -7.26,-9.461 h -90.04 c -5.95,0 -9.11,1.879 -5.95,8.511 l 51.44,115.129" /><path
         id="path64"
         style="fill:#0e6343;fill-opacity:1;fill-rule:nonzero;stroke:none"
         d="m 6100.52,37.1406 v 11.3008 h 7.53 c 3.85,0 7.94,-0.8398 7.94,-5.3633 0,-5.5976 -4.18,-5.9375 -8.86,-5.9375 z m 0,-4.6797 h 6.36 l 9.62,-15.8125 h 6.2 l -10.38,16.0625 c 5.36,0.668 9.45,3.5196 9.45,10.0391 0,7.1875 -4.27,10.3789 -12.88,10.3789 H 6095 V 16.6484 h 5.52 z m 6.7,-29.20309 c 17.23,0 31.95,13.39059 31.95,31.71099 0,18.1601 -14.72,31.5429 -31.95,31.5429 -17.4,0 -32.13,-13.3828 -32.13,-31.5429 0,-18.3204 14.73,-31.71099 32.13,-31.71099 z m -25.77,31.71099 c 0,14.9687 11.3,26.2695 25.77,26.2695 14.3,0 25.6,-11.3008 25.6,-26.2695 0,-15.2188 -11.3,-26.42974 -25.6,-26.42974 -14.47,0 -25.77,11.21094 -25.77,26.42974" /><path
         id="path66"
         style="fill:#0e6343;fill-opacity:1;fill-rule:nonzero;stroke:none"
         d="M 2218.98,473.238 H 6030.79 V 459.539 H 2218.98 v 13.699" /></g></g></svg>